<svg width="578" height="699" viewBox="0 0 578 699" fill="none" xmlns="http://www.w3.org/2000/svg">
<g clip-path="url(#clip0_514_394)">
<path d="M141.858 248.939C141.858 274.029 121.518 294.367 96.4298 294.367C71.34 294.367 51 274.029 51 248.939C51 223.849 71.34 203.511 96.4298 203.511C121.518 203.511 141.858 223.849 141.858 248.939Z" fill="#4BDA61"/>
<path d="M418.305 250.006C418.305 309.19 370.33 357.166 311.147 357.166C251.963 357.166 203.985 309.19 203.985 250.006C203.985 190.821 251.963 142.847 311.147 142.847C370.33 142.847 418.305 190.821 418.305 250.006Z" fill="#FAD222"/>
<path d="M452.918 441.761C452.918 474.96 426.001 501.872 392.803 501.872C359.605 501.872 332.692 474.96 332.692 441.761C332.692 408.563 359.605 381.649 392.803 381.649C426.001 381.649 452.918 408.563 452.918 441.761Z" fill="#F78F2A"/>
<path d="M507.917 79.57C507.917 123.411 472.374 158.954 428.533 158.954C384.688 158.954 349.148 123.411 349.148 79.57C349.148 35.7247 384.688 0.185985 428.533 0.185985C472.374 0.185985 507.917 35.7247 507.917 79.57Z" fill="#5BB7D2"/>
<path d="M307.95 31.9197C263.962 31.9197 219.581 45.1472 181.178 72.6655C137.87 103.693 109.356 147.768 97.0649 195.738C97.4149 195.731 97.7692 195.727 98.123 195.727C106.337 195.727 115.239 197.573 123.801 202.889C134.497 160.909 159.413 122.324 197.303 95.1723C230.824 71.1492 269.548 59.6288 307.937 59.6288C317.072 59.6288 326.19 60.282 335.21 61.5743C336.896 51.78 340.26 42.9204 344.628 35.0001C332.526 32.9545 320.255 31.9197 307.95 31.9197Z" fill="#5BB7D2"/>
<path d="M123.024 294.367C114.991 299.542 106.378 302.114 97.2866 302.114C97.0014 302.114 96.7148 302.112 96.4297 302.109C102.85 328.364 114.221 353.851 130.902 377.132C173.461 436.523 240.535 468.141 308.563 468.141C313.656 468.141 318.761 467.963 323.853 467.607C322.106 462.428 320.892 456.932 320.246 451.123C319.828 447.386 319.776 443.724 319.884 440.103C316.098 440.328 312.313 440.44 308.526 440.44C249.135 440.44 190.564 412.856 153.41 361.003C138.604 340.343 128.579 317.691 123.024 294.367Z" fill="#5BB7D2"/>
<path d="M497.579 141.497C493.063 146.508 488.009 151.043 482.473 155.006C480.294 156.57 478.052 158.005 475.778 159.359C516.543 234.55 501.785 328.362 440.258 387.399C447.621 393.54 453.395 400.79 457.572 409.097C530.877 340.39 547.895 229.107 497.579 141.497Z" fill="#5BB7D2"/>
<path d="M20.8877 621.035H2.82886V546.552H37.1983C41.7963 546.552 45.9331 547.366 49.609 548.992C53.2848 550.606 56.2497 552.777 58.5039 555.505C60.7709 558.233 62.4999 561.281 63.691 564.65C64.8821 568.018 65.4777 571.559 65.4777 575.274C65.4777 578.232 65.1127 581.107 64.3826 583.9C63.6526 586.704 62.5127 589.336 60.963 591.795C59.4132 594.255 57.5369 596.4 55.334 598.231C53.1183 600.063 50.4543 601.517 47.342 602.592C44.2169 603.655 40.8037 604.187 37.1022 604.187H20.8877V621.035ZM20.8877 563.228V587.607H35.1619C38.8761 587.607 41.8283 586.544 44.0184 584.418C46.2085 582.279 47.3036 579.231 47.3036 575.274C47.3036 571.38 46.2149 568.421 44.0376 566.398C41.8731 564.361 38.9145 563.305 35.1619 563.228H20.8877ZM136.33 621.035H79.2908V546.552H97.2536V604.398H136.33V621.035ZM163.764 621.035H144.725L176.597 546.552H196.596L228.564 621.035H209.43L204.608 609.432H168.682L163.764 621.035ZM186.76 566.917L174.945 594.735H198.364L186.76 566.917ZM257.708 621.035H239.63V546.552H257.708L295.401 592.007V546.552H313.479V621.035H295.401L257.708 575.485V621.035ZM386.137 621.035H329.098V546.552H386.137V563.228H347.061V576.023H379.682V591.565H347.061V604.398H386.137V621.035ZM422.659 563.228H396.3V546.552H467.249V563.228H440.852V621.035H422.659V563.228ZM501.791 583.227C501.791 578.091 502.809 573.212 504.846 568.588C506.882 563.952 509.661 559.924 513.183 556.504C516.718 553.071 520.996 550.343 526.017 548.32C531.05 546.283 536.417 545.265 542.116 545.265C549.89 545.265 556.813 546.93 562.884 550.26C568.967 553.603 573.719 558.143 577.139 563.881L561.904 572.757C560.085 569.26 557.479 566.507 554.085 564.496C550.704 562.485 546.714 561.48 542.116 561.48C535.661 561.48 530.358 563.555 526.209 567.704C522.059 571.854 519.984 577.028 519.984 583.227C519.984 587.146 520.906 590.803 522.751 594.197C524.608 597.578 527.24 600.306 530.647 602.381C534.054 604.443 537.877 605.474 542.116 605.474C546.535 605.474 550.428 604.456 553.797 602.419C557.165 600.396 559.797 597.655 561.693 594.197L576.927 602.957C573.431 608.81 568.653 613.511 562.595 617.059C556.537 620.606 549.711 622.38 542.116 622.38C536.378 622.38 531.005 621.362 525.997 619.326C520.99 617.289 516.718 614.536 513.183 611.065C509.661 607.594 506.882 603.45 504.846 598.635C502.809 593.819 501.791 588.683 501.791 583.227Z" fill="#FAD222"/>
<path d="M13.702 697.815H0.0617676V641.621H25.9973C29.4682 641.621 32.5933 642.236 35.3726 643.466C38.139 644.683 40.374 646.322 42.0774 648.384C43.7936 650.446 45.1 652.745 45.9966 655.281C46.8931 657.817 47.3414 660.487 47.3414 663.292C47.3414 665.521 47.066 667.692 46.5153 669.805C45.9645 671.918 45.1064 673.903 43.9409 675.76C42.7626 677.605 41.341 679.225 39.676 680.621C38.011 682.004 36.0002 683.099 33.6435 683.906C31.2997 684.713 28.7254 685.116 25.9205 685.116H13.702V697.815ZM13.702 654.205V672.61H24.4796C27.2717 672.61 29.4938 671.803 31.146 670.189C32.7982 668.575 33.6243 666.276 33.6243 663.292C33.6243 660.359 32.8046 658.124 31.1652 656.587C29.5259 655.063 27.2973 654.269 24.4796 654.205H13.702ZM100.788 697.815H57.754V641.621H71.2981V685.27H100.788V697.815ZM121.479 697.815H107.128L131.161 641.621H146.242L170.372 697.815H155.925L152.294 689.055H125.187L121.479 697.815ZM138.827 656.991L129.913 677.97H147.587L138.827 656.991ZM185.088 676.606L161.131 641.621H176.75L192.023 664.618L207.085 641.621H222.858L198.728 676.606V697.815H185.088V676.606ZM263.106 697.815H248.755L272.789 641.621H287.87L312 697.815H297.552L293.921 689.055H266.814L263.106 697.815ZM280.454 656.991L271.54 677.97H289.195L280.454 656.991ZM313.075 669.747C313.075 665.866 313.844 662.152 315.381 658.604C316.918 655.057 319.018 651.964 321.682 649.325C324.333 646.7 327.574 644.599 331.403 643.024C335.22 641.449 339.28 640.661 343.583 640.661C348.847 640.661 353.631 641.756 357.934 643.946C362.238 646.136 365.843 649.14 368.75 652.956L357.051 658.893C354.118 655.204 349.571 653.36 343.41 653.36C338.518 653.36 334.515 654.897 331.403 657.97C328.278 661.032 326.716 664.899 326.716 669.574C326.716 674.121 328.317 678.021 331.518 681.274C334.72 684.527 338.742 686.154 343.583 686.154C349.436 686.154 354.034 684.585 357.377 681.447V675.991H340.279V665.578H369.346V686.404C369.218 686.698 368.814 687.236 368.136 688.017C367.47 688.799 366.375 689.823 364.85 691.091C363.339 692.372 361.636 693.569 359.74 694.684C357.845 695.798 355.462 696.765 352.593 697.585C349.725 698.404 346.747 698.814 343.66 698.814C339.139 698.814 334.944 698.014 331.077 696.413C327.196 694.799 323.962 692.647 321.375 689.958C318.775 687.268 316.745 684.175 315.285 680.679C313.812 677.182 313.075 673.538 313.075 669.747ZM387.347 697.815H372.977L397.03 641.621H412.111L436.241 697.815H421.793L418.162 689.055H391.055L387.347 697.815ZM404.695 656.991L395.781 677.97H413.436L404.695 656.991ZM458.987 697.815H445.424V641.621H458.987V697.815ZM484.308 697.815H470.687V641.621H484.308L512.741 675.914V641.621H526.381V697.815H512.741L484.308 663.446V697.815ZM548.897 659.488H535.257C535.257 653.712 537.229 649.127 541.174 645.733C545.106 642.352 550.491 640.661 557.331 640.661C560.763 640.661 563.824 641.096 566.514 641.967C569.204 642.838 571.374 644.036 573.027 645.56C574.679 647.084 575.934 648.832 576.792 650.805C577.637 652.777 578.06 654.922 578.06 657.24C578.06 659.2 577.772 660.98 577.196 662.581C576.606 664.182 575.857 665.508 574.948 666.558C574.038 667.608 573.033 668.562 571.932 669.421C570.83 670.279 569.716 671.06 568.589 671.764C567.475 672.456 566.463 673.141 565.553 673.82C564.631 674.486 563.882 675.267 563.306 676.164C562.729 677.048 562.441 678.015 562.441 679.065H547.725C547.725 677.233 548.026 675.581 548.628 674.108C549.23 672.648 550.024 671.444 551.01 670.496C551.996 669.536 553.079 668.671 554.257 667.903C555.435 667.134 556.62 666.456 557.811 665.866C558.989 665.277 560.072 664.695 561.058 664.118C562.031 663.542 562.825 662.882 563.44 662.139C564.042 661.397 564.343 660.57 564.343 659.661C564.343 657.753 563.587 656.171 562.076 654.916C560.578 653.661 558.708 653.033 556.466 653.033C554.353 653.033 552.56 653.693 551.087 655.012C549.627 656.331 548.897 657.823 548.897 659.488ZM547.398 690.88C547.398 688.613 548.186 686.666 549.762 685.04C551.337 683.413 553.2 682.6 555.352 682.6C557.632 682.6 559.572 683.407 561.173 685.02C562.774 686.634 563.575 688.587 563.575 690.88C563.575 693.032 562.768 694.895 561.154 696.47C559.54 698.033 557.606 698.814 555.352 698.814C553.2 698.814 551.337 698.033 549.762 696.47C548.186 694.895 547.398 693.032 547.398 690.88Z" fill="#FAD222"/>
</g>
<defs>
<clipPath id="clip0_514_394">
<rect width="578" height="699" fill="white"/>
</clipPath>
</defs>
</svg>
